<svg width="288" height="413" viewBox="0 0 288 413" fill="none" xmlns="http://www.w3.org/2000/svg">
<path d="M1 195.208C1 116.508 64.7994 52.7082 143.5 52.7082C222.201 52.7082 286 116.508 286 195.208V411.708H1V195.208Z" stroke="#BCBCBC" stroke-width="2"/>
<path d="M169.216 8.97639L161.112 14.412L164.872 23.4153L166.969 21.5295L164.449 15.4147L169.925 11.7049L169.216 8.97639ZM167.52 24.0238L170.123 24.807L178.514 11.9186L175.909 11.135L167.52 24.0238ZM181.365 12.6313L179.269 14.5171L181.788 20.632L176.313 24.3418L177.021 27.0715L185.125 21.6371L181.365 12.6313Z" fill="#BCBCBC"/>
<path d="M214.095 35.5722L209.039 43.5024L211.373 46.6138L214.986 48.0823L221.364 41.1735L214.095 35.5722ZM218.682 41.8115L216.526 44.147L215.038 45.758L214.906 45.9012L212.64 44.9806L211.175 43.0267L212.149 41.4993L213.062 42.2031L212.568 42.979L213.372 44.0342L213.375 44.0355L213.375 44.036L214.598 44.5426L215.613 43.4443L213.489 41.8075L213.628 41.5891L213.942 41.0956L214.109 40.8348L216.395 42.5965L217.196 41.7289L213.714 39.0454L213.853 38.8267L214.167 38.3332L214.334 38.0725L218.892 41.5849L218.682 41.8121L218.682 41.8115Z" fill="#BCBCBC"/>
<path d="M266.583 37.3178C262.68 37.3178 259.449 37.2659 259.371 37.1885C259.306 37.1238 259.022 35.2634 258.751 33.0788L258.272 29.1113L255.559 28.2066L246.511 37.2539L247.416 39.9679L251.074 40.4206C253.103 40.6665 254.951 40.9124 255.184 40.9635C255.598 41.0673 255.623 41.5576 255.636 48.2406L255.636 55.4012L258.725 56.7066L261.802 58.0249L276.329 43.497L275.322 41.1448C274.78 39.8521 274.171 38.4692 273.991 38.0556L273.667 37.3186L266.585 37.3186L266.583 37.3178ZM264.605 46.3012C262.614 48.2917 260.961 49.8942 260.909 49.8423C260.728 49.6611 259.875 41.7261 260.03 41.6478C260.211 41.5448 267.966 42.4487 268.121 42.6044C268.186 42.6435 266.597 44.3107 264.607 46.3012L264.605 46.3012ZM255.622 34.7332L255.622 37.3186L253.037 37.3186C251.616 37.3186 250.413 37.2803 250.361 37.2284C250.297 37.1637 251.421 35.9612 252.842 34.54C254.263 33.1187 255.466 31.9929 255.531 32.0584C255.583 32.1103 255.622 33.3128 255.622 34.734L255.622 34.7332Z" fill="#BCBCBC"/>
<path d="M280.136 84.7082L268 92.3805L275.672 104.516L287.808 96.844L280.136 84.7082ZM273.759 97.6054C273.282 97.6563 272.827 97.4657 272.462 97.143C271.938 96.6232 271.65 95.9917 271.636 95.3947C271.631 94.9927 271.761 94.5938 271.979 94.2416C272.362 94.4306 272.745 94.618 273.128 94.807C273.13 94.8174 273.101 94.8691 273.065 94.9375C272.942 95.1798 272.867 95.3696 272.895 95.6311C272.953 95.8695 273.181 96.3268 273.632 96.2749C273.871 96.2657 274.426 95.8693 275.05 95.4749C276.031 94.8549 276.998 94.2498 277.991 93.6222L278.708 94.7572C277.666 95.4162 276.625 96.0827 275.58 96.7349C274.944 97.1405 274.399 97.5625 273.759 97.6051L273.759 97.6054ZM277.056 102.112C275.457 102.571 274.022 100.398 274.359 98.9557C274.451 98.6373 274.487 98.4516 274.66 98.1875C275.224 98.4849 275.224 98.4849 275.774 98.7731C275.551 99.2601 275.486 99.6204 275.661 100.085C275.945 100.685 276.491 101.125 277.003 100.625C277.405 100.19 276.883 99.1044 276.964 98.089C276.992 97.0929 278.029 96.208 279.044 96.3702C279.407 96.4093 279.793 96.6221 280.096 96.9098C280.186 97.0189 280.278 97.129 280.368 97.2381C280.816 97.9157 280.906 98.4594 280.753 98.9969C280.72 99.1407 280.669 99.2726 280.546 99.5382C280.082 99.3198 280.085 99.3195 279.414 99.0102C279.585 98.7456 279.619 98.4646 279.56 98.227C279.46 97.8642 279.117 97.5434 278.745 97.6674C278.628 97.7027 278.539 97.7668 278.403 97.9141C278.2 98.2154 278.339 98.7068 278.404 99.1861C278.646 100.53 278.41 101.185 277.912 101.624C277.489 102.01 277.113 102.099 277.057 102.113L277.056 102.112Z" fill="#BCBCBC"/>
<path d="M241.084 59.1055L235.954 65.6613L237.872 68.746L241.065 70.4998L247.332 65.0226L241.084 59.1055ZM240.913 61.6522L241.082 61.4363L243.041 63.2913L242.342 64.0292L241.238 62.9839L240.594 63.8073L241.626 64.785L240.927 65.5229L239.18 63.8678L240.913 61.6522ZM243.237 66.6872L241.213 68.456L241.083 68.5694L239.081 67.4694L237.877 65.5323L238.864 64.2697L239.65 65.0133L239.148 65.6546L239.809 66.7019L240.892 67.3057L241.889 66.4346L240.929 65.525L241.628 64.7871L243.443 66.5063L243.237 66.6872ZM244.794 65.3274L244.404 65.6679L244.231 65.8189L242.344 64.0321L243.043 63.2942L245 65.1473L244.794 65.3274Z" fill="#BCBCBC"/>
<path fill-rule="evenodd" clip-rule="evenodd" d="M219.617 1.66019L224.179 4.61154C225.596 5.52801 226.001 7.42124 225.085 8.83776C224.443 9.83042 223.321 10.3267 222.22 10.2194C222.769 11.1801 222.776 12.4069 222.134 13.3995C221.217 14.816 219.324 15.2218 217.907 14.3054C217.102 13.784 216.623 12.9467 216.529 12.0608L214.621 15.01C213.704 16.4265 211.811 16.8323 210.394 15.9158C208.978 14.9993 208.572 13.1061 209.488 11.6896C210.131 10.6969 211.253 10.2006 212.354 10.3079C211.805 9.34722 211.798 8.12045 212.44 7.12779C213.082 6.13513 214.204 5.63882 215.305 5.74608C214.756 4.78543 214.749 3.55869 215.391 2.56603C216.308 1.14951 218.201 0.743719 219.617 1.66019ZM215.961 2.93495C216.674 1.83336 218.147 1.51769 219.249 2.23041L221.244 3.52158L218.662 7.51312L216.666 6.22195L216.66 6.21795C215.563 5.50373 215.25 4.03447 215.961 2.93495ZM217.019 10.0521C217.013 10.0611 217.007 10.0701 217.002 10.0791C216.996 10.0882 216.99 10.0973 216.984 10.1064L215.71 12.075L213.715 10.7837C212.613 10.0711 212.297 8.59831 213.01 7.49671C213.721 6.39717 215.19 6.08063 216.291 6.78821L216.297 6.79219L218.293 8.08336L217.019 10.0521ZM217.556 10.4721L217.587 10.4243C218.304 9.34466 219.758 9.0375 220.851 9.73826L220.859 9.74355C220.861 9.74487 220.863 9.74619 220.865 9.74751C221.962 10.4617 222.275 11.931 221.563 13.0306C220.851 14.1322 219.378 14.4479 218.276 13.7351C217.183 13.0276 216.864 11.571 217.556 10.4721ZM219.246 8.7003C219.032 8.72312 218.82 8.76848 218.615 8.83555L218.863 8.45238L219.246 8.7003ZM221.234 9.17731C221.232 9.17598 221.23 9.17464 221.228 9.1733C221.225 9.17129 221.222 9.16928 221.218 9.16727L219.232 7.88215L221.815 3.8906L223.81 5.18177C224.912 5.89449 225.228 7.36724 224.515 8.46883C223.803 9.56835 222.335 9.88486 221.234 9.17731ZM213.346 11.354C212.244 10.6412 210.771 10.9569 210.059 12.0585C209.346 13.1601 209.662 14.6329 210.763 15.3456C211.865 16.0583 213.338 15.7426 214.05 14.641L215.342 12.6452L213.346 11.354Z" fill="#BCBCBC"/>
</svg>
